<mxfile host="app.diagrams.net" agent="Mozilla/5.0 (Windows NT 10.0; Win64; x64) AppleWebKit/537.36 (KHTML, like Gecko) Chrome/131.0.0.0 Safari/537.36 OPR/116.0.0.0" version="26.0.16">
  <diagram name="Page-1" id="5f0bae14-7c28-e335-631c-24af17079c00">
    <mxGraphModel dx="3264" dy="2356" grid="1" gridSize="10" guides="1" tooltips="1" connect="1" arrows="1" fold="1" page="1" pageScale="1" pageWidth="1100" pageHeight="850" background="none" math="0" shadow="0">
      <root>
        <mxCell id="0" />
        <mxCell id="1" parent="0" />
        <mxCell id="GVH7bZ4-ch_q7qwEqbvq-2" value="&lt;font style=&quot;font-size: 24px;&quot;&gt;&lt;b style=&quot;&quot;&gt;Client (APP)&lt;/b&gt;&lt;/font&gt;" style="verticalAlign=top;align=left;spacingTop=8;spacingLeft=2;spacingRight=12;shape=cube;size=10;direction=south;fontStyle=4;html=1;whiteSpace=wrap;" parent="1" vertex="1">
          <mxGeometry x="10" y="-270" width="1300" height="470" as="geometry" />
        </mxCell>
        <mxCell id="GVH7bZ4-ch_q7qwEqbvq-4" value="&lt;font style=&quot;font-size: 24px;&quot;&gt;Server&lt;/font&gt;" style="verticalAlign=top;align=left;spacingTop=8;spacingLeft=2;spacingRight=12;shape=cube;size=10;direction=south;fontStyle=4;html=1;whiteSpace=wrap;movable=1;resizable=1;rotatable=1;deletable=1;editable=1;locked=0;connectable=1;" parent="1" vertex="1">
          <mxGeometry x="10" y="311" width="1300" height="1109" as="geometry" />
        </mxCell>
        <mxCell id="GVH7bZ4-ch_q7qwEqbvq-39" value="" style="ellipse;whiteSpace=wrap;html=1;align=center;aspect=fixed;fillColor=none;strokeColor=none;resizable=0;perimeter=centerPerimeter;rotatable=0;allowArrows=0;points=[];outlineConnect=1;" parent="1" vertex="1">
          <mxGeometry x="604.95" y="770" width="10" height="10" as="geometry" />
        </mxCell>
        <mxCell id="GVH7bZ4-ch_q7qwEqbvq-65" value="" style="ellipse;whiteSpace=wrap;html=1;align=center;aspect=fixed;fillColor=none;strokeColor=none;resizable=0;perimeter=centerPerimeter;rotatable=0;allowArrows=0;points=[];outlineConnect=1;" parent="1" vertex="1">
          <mxGeometry x="255" y="271" width="10" height="10" as="geometry" />
        </mxCell>
        <mxCell id="GVH7bZ4-ch_q7qwEqbvq-91" value="" style="ellipse;whiteSpace=wrap;html=1;align=center;aspect=fixed;fillColor=none;strokeColor=none;resizable=0;perimeter=centerPerimeter;rotatable=0;allowArrows=0;points=[];outlineConnect=1;" parent="1" vertex="1">
          <mxGeometry x="765" y="272" width="10" height="10" as="geometry" />
        </mxCell>
        <mxCell id="GVH7bZ4-ch_q7qwEqbvq-100" value="" style="ellipse;whiteSpace=wrap;html=1;align=center;aspect=fixed;fillColor=none;strokeColor=none;resizable=0;perimeter=centerPerimeter;rotatable=0;allowArrows=0;points=[];outlineConnect=1;" parent="1" vertex="1">
          <mxGeometry x="764.95" y="990" width="10" height="10" as="geometry" />
        </mxCell>
        <mxCell id="GVH7bZ4-ch_q7qwEqbvq-103" value="" style="ellipse;whiteSpace=wrap;html=1;align=center;aspect=fixed;fillColor=none;strokeColor=none;resizable=0;perimeter=centerPerimeter;rotatable=0;allowArrows=0;points=[];outlineConnect=1;" parent="1" vertex="1">
          <mxGeometry x="519.95" y="870" width="10" height="10" as="geometry" />
        </mxCell>
        <mxCell id="GVH7bZ4-ch_q7qwEqbvq-106" value="" style="ellipse;whiteSpace=wrap;html=1;align=center;aspect=fixed;fillColor=none;strokeColor=none;resizable=0;perimeter=centerPerimeter;rotatable=0;allowArrows=0;points=[];outlineConnect=1;" parent="1" vertex="1">
          <mxGeometry x="254.95" y="990" width="10" height="10" as="geometry" />
        </mxCell>
        <mxCell id="GVH7bZ4-ch_q7qwEqbvq-115" value="" style="ellipse;whiteSpace=wrap;html=1;align=center;aspect=fixed;fillColor=none;strokeColor=none;resizable=0;perimeter=centerPerimeter;rotatable=0;allowArrows=0;points=[];outlineConnect=1;" parent="1" vertex="1">
          <mxGeometry x="1030" y="272" width="10" height="10" as="geometry" />
        </mxCell>
        <mxCell id="ot8jC1JeRxp6GfneqWq5-29" value="" style="ellipse;whiteSpace=wrap;html=1;align=center;aspect=fixed;fillColor=none;strokeColor=none;resizable=0;perimeter=centerPerimeter;rotatable=0;allowArrows=0;points=[];outlineConnect=1;" parent="1" vertex="1">
          <mxGeometry x="898" y="291" width="10" height="10" as="geometry" />
        </mxCell>
        <mxCell id="ot8jC1JeRxp6GfneqWq5-35" value="" style="ellipse;whiteSpace=wrap;html=1;align=center;aspect=fixed;fillColor=none;strokeColor=none;resizable=0;perimeter=centerPerimeter;rotatable=0;allowArrows=0;points=[];outlineConnect=1;" parent="1" vertex="1">
          <mxGeometry x="631" y="281" width="10" height="10" as="geometry" />
        </mxCell>
        <mxCell id="ot8jC1JeRxp6GfneqWq5-38" value="" style="ellipse;whiteSpace=wrap;html=1;align=center;aspect=fixed;fillColor=none;strokeColor=none;resizable=0;perimeter=centerPerimeter;rotatable=0;allowArrows=0;points=[];outlineConnect=1;" parent="1" vertex="1">
          <mxGeometry x="650" y="291" width="10" height="10" as="geometry" />
        </mxCell>
        <mxCell id="ot8jC1JeRxp6GfneqWq5-49" value="" style="rounded=0;orthogonalLoop=1;jettySize=auto;html=1;endArrow=halfCircle;endFill=0;endSize=6;strokeWidth=1;sketch=0;exitX=0.5;exitY=1;exitDx=0;exitDy=0;" parent="1" target="ot8jC1JeRxp6GfneqWq5-51" edge="1">
          <mxGeometry relative="1" as="geometry">
            <mxPoint x="654.95" y="1080" as="sourcePoint" />
          </mxGeometry>
        </mxCell>
        <mxCell id="ot8jC1JeRxp6GfneqWq5-14" value="&lt;p style=&quot;margin:0px;margin-top:6px;text-align:center;&quot;&gt;&lt;b&gt;&lt;font style=&quot;font-size: 18px;&quot;&gt;Business Core Logic&lt;/font&gt;&lt;/b&gt;&lt;/p&gt;" style="align=left;overflow=fill;html=1;dropTarget=0;whiteSpace=wrap;" parent="1" vertex="1">
          <mxGeometry x="110" y="660" width="1090" height="470" as="geometry" />
        </mxCell>
        <mxCell id="ot8jC1JeRxp6GfneqWq5-15" value="" style="shape=component;jettyWidth=8;jettyHeight=4;" parent="ot8jC1JeRxp6GfneqWq5-14" vertex="1">
          <mxGeometry x="1" width="20" height="20" relative="1" as="geometry">
            <mxPoint x="-24" y="4" as="offset" />
          </mxGeometry>
        </mxCell>
        <mxCell id="ot8jC1JeRxp6GfneqWq5-3" value="&lt;p style=&quot;margin:0px;margin-top:6px;text-align:center;&quot;&gt;&lt;b&gt;&lt;font style=&quot;font-size: 18px;&quot;&gt;API&lt;/font&gt;&lt;/b&gt;&lt;/p&gt;" style="align=left;overflow=fill;html=1;dropTarget=0;whiteSpace=wrap;container=0;" parent="1" vertex="1">
          <mxGeometry x="110" y="-30" width="1090" height="210" as="geometry" />
        </mxCell>
        <mxCell id="GVH7bZ4-ch_q7qwEqbvq-12" value="" style="ellipse;whiteSpace=wrap;html=1;align=center;aspect=fixed;fillColor=none;strokeColor=none;resizable=0;perimeter=centerPerimeter;rotatable=0;allowArrows=0;points=[];outlineConnect=1;" parent="1" vertex="1">
          <mxGeometry x="526.3636363636364" y="231" width="10" height="10" as="geometry" />
        </mxCell>
        <mxCell id="GVH7bZ4-ch_q7qwEqbvq-17" value="" style="ellipse;whiteSpace=wrap;html=1;align=center;aspect=fixed;fillColor=none;strokeColor=none;resizable=0;perimeter=centerPerimeter;rotatable=0;allowArrows=0;points=[];outlineConnect=1;" parent="1" vertex="1">
          <mxGeometry x="566" y="231" width="10" height="10" as="geometry" />
        </mxCell>
        <mxCell id="ot8jC1JeRxp6GfneqWq5-5" value="&lt;font style=&quot;font-size: 18px;&quot;&gt;«Component»&lt;br&gt;&lt;b&gt;User Interface&lt;/b&gt;&lt;/font&gt;" style="html=1;dropTarget=0;whiteSpace=wrap;" parent="1" vertex="1">
          <mxGeometry x="523.23" y="-230" width="263.64" height="130" as="geometry" />
        </mxCell>
        <mxCell id="ot8jC1JeRxp6GfneqWq5-6" value="" style="shape=module;jettyWidth=8;jettyHeight=4;" parent="ot8jC1JeRxp6GfneqWq5-5" vertex="1">
          <mxGeometry x="1" width="20" height="20" relative="1" as="geometry">
            <mxPoint x="-27" y="7" as="offset" />
          </mxGeometry>
        </mxCell>
        <mxCell id="ot8jC1JeRxp6GfneqWq5-7" value="" style="rounded=0;orthogonalLoop=1;jettySize=auto;html=1;endArrow=halfCircle;endFill=0;endSize=6;strokeWidth=1;sketch=0;exitX=0.5;exitY=1;exitDx=0;exitDy=0;" parent="1" source="ot8jC1JeRxp6GfneqWq5-5" target="ot8jC1JeRxp6GfneqWq5-9" edge="1">
          <mxGeometry relative="1" as="geometry">
            <mxPoint x="808.5909090909091" y="-75" as="sourcePoint" />
          </mxGeometry>
        </mxCell>
        <mxCell id="ot8jC1JeRxp6GfneqWq5-8" value="" style="rounded=0;orthogonalLoop=1;jettySize=auto;html=1;endArrow=oval;endFill=0;sketch=0;sourcePerimeterSpacing=0;targetPerimeterSpacing=0;endSize=10;exitX=0.5;exitY=0;exitDx=0;exitDy=0;" parent="1" source="ot8jC1JeRxp6GfneqWq5-3" target="ot8jC1JeRxp6GfneqWq5-9" edge="1">
          <mxGeometry relative="1" as="geometry">
            <mxPoint x="768.9545454545455" y="-75" as="sourcePoint" />
          </mxGeometry>
        </mxCell>
        <mxCell id="ot8jC1JeRxp6GfneqWq5-9" value="" style="ellipse;whiteSpace=wrap;html=1;align=center;aspect=fixed;fillColor=none;strokeColor=none;resizable=0;perimeter=centerPerimeter;rotatable=0;allowArrows=0;points=[];outlineConnect=1;" parent="1" vertex="1">
          <mxGeometry x="650.0454545454546" y="-70" width="10" height="10" as="geometry" />
        </mxCell>
        <mxCell id="ot8jC1JeRxp6GfneqWq5-4" value="" style="shape=component;jettyWidth=8;jettyHeight=4;" parent="1" vertex="1">
          <mxGeometry x="1176" y="-26" width="20" height="20" as="geometry">
            <mxPoint x="-24" y="4" as="offset" />
          </mxGeometry>
        </mxCell>
        <mxCell id="GVH7bZ4-ch_q7qwEqbvq-53" value="&lt;font style=&quot;font-size: 18px;&quot;&gt;«Component»&lt;br&gt;&lt;b&gt;AuthenticationManager&lt;/b&gt;&lt;/font&gt;" style="html=1;dropTarget=0;whiteSpace=wrap;" parent="1" vertex="1">
          <mxGeometry x="130" y="15" width="240" height="135" as="geometry" />
        </mxCell>
        <mxCell id="GVH7bZ4-ch_q7qwEqbvq-54" value="" style="shape=module;jettyWidth=8;jettyHeight=4;" parent="GVH7bZ4-ch_q7qwEqbvq-53" vertex="1">
          <mxGeometry x="1" width="20" height="20" relative="1" as="geometry">
            <mxPoint x="-27" y="7" as="offset" />
          </mxGeometry>
        </mxCell>
        <mxCell id="GVH7bZ4-ch_q7qwEqbvq-55" value="&lt;font style=&quot;font-size: 18px;&quot;&gt;«Component»&lt;br&gt;&lt;b&gt;NotificationManager&lt;/b&gt;&lt;/font&gt;" style="html=1;dropTarget=0;whiteSpace=wrap;" parent="1" vertex="1">
          <mxGeometry x="421.68" y="15" width="208.32" height="135" as="geometry" />
        </mxCell>
        <mxCell id="GVH7bZ4-ch_q7qwEqbvq-56" value="" style="shape=module;jettyWidth=8;jettyHeight=4;" parent="GVH7bZ4-ch_q7qwEqbvq-55" vertex="1">
          <mxGeometry x="1" width="20" height="20" relative="1" as="geometry">
            <mxPoint x="-27" y="7" as="offset" />
          </mxGeometry>
        </mxCell>
        <mxCell id="GVH7bZ4-ch_q7qwEqbvq-57" value="&lt;font style=&quot;font-size: 18px;&quot;&gt;«Component»&lt;br&gt;&lt;b&gt;MessageAdapter&lt;/b&gt;&lt;/font&gt;" style="html=1;dropTarget=0;whiteSpace=wrap;" parent="1" vertex="1">
          <mxGeometry x="700" y="15" width="210" height="135" as="geometry" />
        </mxCell>
        <mxCell id="GVH7bZ4-ch_q7qwEqbvq-58" value="" style="shape=module;jettyWidth=8;jettyHeight=4;" parent="GVH7bZ4-ch_q7qwEqbvq-57" vertex="1">
          <mxGeometry x="1" width="20" height="20" relative="1" as="geometry">
            <mxPoint x="-27" y="7" as="offset" />
          </mxGeometry>
        </mxCell>
        <mxCell id="GVH7bZ4-ch_q7qwEqbvq-111" value="&lt;font style=&quot;font-size: 18px;&quot;&gt;«Component»&lt;br&gt;&lt;b&gt;FileAdapter&lt;/b&gt;&lt;/font&gt;" style="html=1;dropTarget=0;whiteSpace=wrap;" parent="1" vertex="1">
          <mxGeometry x="950" y="15" width="230" height="135" as="geometry" />
        </mxCell>
        <mxCell id="GVH7bZ4-ch_q7qwEqbvq-112" value="" style="shape=module;jettyWidth=8;jettyHeight=4;" parent="GVH7bZ4-ch_q7qwEqbvq-111" vertex="1">
          <mxGeometry x="1" width="20" height="20" relative="1" as="geometry">
            <mxPoint x="-27" y="7" as="offset" />
          </mxGeometry>
        </mxCell>
        <mxCell id="ot8jC1JeRxp6GfneqWq5-50" value="" style="rounded=0;orthogonalLoop=1;jettySize=auto;html=1;endArrow=oval;endFill=0;sketch=0;sourcePerimeterSpacing=0;targetPerimeterSpacing=0;endSize=10;exitX=0.5;exitY=0;exitDx=0;exitDy=0;" parent="1" source="ot8jC1JeRxp6GfneqWq5-12" target="ot8jC1JeRxp6GfneqWq5-51" edge="1">
          <mxGeometry relative="1" as="geometry">
            <mxPoint x="634.95" y="1155" as="sourcePoint" />
          </mxGeometry>
        </mxCell>
        <mxCell id="ot8jC1JeRxp6GfneqWq5-51" value="" style="ellipse;whiteSpace=wrap;html=1;align=center;aspect=fixed;fillColor=none;strokeColor=none;resizable=0;perimeter=centerPerimeter;rotatable=0;allowArrows=0;points=[];outlineConnect=1;" parent="1" vertex="1">
          <mxGeometry x="649.95" y="1170" width="10" height="10" as="geometry" />
        </mxCell>
        <mxCell id="ot8jC1JeRxp6GfneqWq5-52" value="" style="group" parent="1" vertex="1" connectable="0">
          <mxGeometry x="495" y="1220" width="320" height="490" as="geometry" />
        </mxCell>
        <mxCell id="GVH7bZ4-ch_q7qwEqbvq-28" value="" style="group" parent="ot8jC1JeRxp6GfneqWq5-52" vertex="1" connectable="0">
          <mxGeometry x="20" y="300" width="280" height="180" as="geometry" />
        </mxCell>
        <mxCell id="GVH7bZ4-ch_q7qwEqbvq-26" value="" style="shape=cylinder3;whiteSpace=wrap;html=1;boundedLbl=1;backgroundOutline=1;size=27.444481743706547;align=center;" parent="GVH7bZ4-ch_q7qwEqbvq-28" vertex="1">
          <mxGeometry width="280" height="180" as="geometry" />
        </mxCell>
        <mxCell id="GVH7bZ4-ch_q7qwEqbvq-22" value="&lt;p style=&quot;margin:0px;margin-top:6px;text-align:center;&quot;&gt;&lt;b&gt;&lt;br&gt;&lt;/b&gt;&lt;/p&gt;&lt;p style=&quot;margin:0px;margin-top:6px;text-align:center;&quot;&gt;&lt;b&gt;DBMS&lt;/b&gt;&lt;/p&gt;&lt;p style=&quot;margin:0px;margin-top:6px;text-align:center;&quot;&gt;&lt;font style=&quot;font-size: 8px;&quot;&gt;SQLite&lt;/font&gt;&lt;/p&gt;&lt;p style=&quot;margin:0px;margin-left:8px;&quot;&gt;&lt;br&gt;&lt;/p&gt;" style="align=left;overflow=fill;html=1;dropTarget=0;whiteSpace=wrap;" parent="GVH7bZ4-ch_q7qwEqbvq-28" vertex="1">
          <mxGeometry x="75" y="70" width="130" height="70" as="geometry" />
        </mxCell>
        <mxCell id="GVH7bZ4-ch_q7qwEqbvq-23" value="" style="shape=component;jettyWidth=8;jettyHeight=4;" parent="GVH7bZ4-ch_q7qwEqbvq-22" vertex="1">
          <mxGeometry x="1" width="20" height="20" relative="1" as="geometry">
            <mxPoint x="-24" y="4" as="offset" />
          </mxGeometry>
        </mxCell>
        <mxCell id="GVH7bZ4-ch_q7qwEqbvq-27" value="&lt;b&gt;&lt;font style=&quot;font-size: 24px;&quot;&gt;Database&lt;/font&gt;&lt;/b&gt;" style="text;html=1;align=center;verticalAlign=middle;whiteSpace=wrap;rounded=0;" parent="GVH7bZ4-ch_q7qwEqbvq-28" vertex="1">
          <mxGeometry x="110" y="10" width="60" height="30" as="geometry" />
        </mxCell>
        <mxCell id="GVH7bZ4-ch_q7qwEqbvq-75" value="" style="rounded=0;orthogonalLoop=1;jettySize=auto;html=1;endArrow=halfCircle;endFill=0;endSize=6;strokeWidth=1;sketch=0;exitX=0.5;exitY=1;exitDx=0;exitDy=0;" parent="ot8jC1JeRxp6GfneqWq5-52" source="GVH7bZ4-ch_q7qwEqbvq-93" target="GVH7bZ4-ch_q7qwEqbvq-77" edge="1">
          <mxGeometry relative="1" as="geometry">
            <mxPoint x="55" y="30" as="sourcePoint" />
          </mxGeometry>
        </mxCell>
        <mxCell id="GVH7bZ4-ch_q7qwEqbvq-76" value="" style="rounded=0;orthogonalLoop=1;jettySize=auto;html=1;endArrow=oval;endFill=0;sketch=0;sourcePerimeterSpacing=0;targetPerimeterSpacing=0;endSize=10;exitX=0.5;exitY=0;exitDx=0;exitDy=0;exitPerimeter=0;" parent="ot8jC1JeRxp6GfneqWq5-52" source="GVH7bZ4-ch_q7qwEqbvq-26" target="GVH7bZ4-ch_q7qwEqbvq-77" edge="1">
          <mxGeometry relative="1" as="geometry">
            <mxPoint x="30" y="95" as="sourcePoint" />
          </mxGeometry>
        </mxCell>
        <mxCell id="GVH7bZ4-ch_q7qwEqbvq-77" value="" style="ellipse;whiteSpace=wrap;html=1;align=center;aspect=fixed;fillColor=none;strokeColor=none;resizable=0;perimeter=centerPerimeter;rotatable=0;allowArrows=0;points=[];outlineConnect=1;" parent="ot8jC1JeRxp6GfneqWq5-52" vertex="1">
          <mxGeometry x="155" y="250" width="10" height="10" as="geometry" />
        </mxCell>
        <mxCell id="GVH7bZ4-ch_q7qwEqbvq-88" value="&lt;font style=&quot;font-size: 14px;&quot;&gt;JDBC&lt;/font&gt;" style="text;html=1;align=center;verticalAlign=middle;resizable=0;points=[];autosize=1;strokeColor=none;fillColor=none;" parent="ot8jC1JeRxp6GfneqWq5-52" vertex="1">
          <mxGeometry x="95" y="250" width="60" height="30" as="geometry" />
        </mxCell>
        <mxCell id="ot8jC1JeRxp6GfneqWq5-16" value="" style="group" parent="ot8jC1JeRxp6GfneqWq5-52" vertex="1" connectable="0">
          <mxGeometry y="-10" width="320" height="160" as="geometry" />
        </mxCell>
        <mxCell id="ot8jC1JeRxp6GfneqWq5-12" value="&lt;p style=&quot;margin:0px;margin-top:6px;text-align:center;&quot;&gt;&lt;b&gt;&lt;font style=&quot;font-size: 18px;&quot;&gt;Data Access Layer&lt;/font&gt;&lt;/b&gt;&lt;/p&gt;" style="align=left;overflow=fill;html=1;dropTarget=0;whiteSpace=wrap;" parent="ot8jC1JeRxp6GfneqWq5-16" vertex="1">
          <mxGeometry width="320" height="160" as="geometry" />
        </mxCell>
        <mxCell id="ot8jC1JeRxp6GfneqWq5-13" value="" style="shape=component;jettyWidth=8;jettyHeight=4;" parent="ot8jC1JeRxp6GfneqWq5-12" vertex="1">
          <mxGeometry x="1" width="20" height="20" relative="1" as="geometry">
            <mxPoint x="-24" y="4" as="offset" />
          </mxGeometry>
        </mxCell>
        <mxCell id="GVH7bZ4-ch_q7qwEqbvq-93" value="«Component»&lt;br&gt;&lt;b&gt;DatabaseHandler&lt;/b&gt;" style="html=1;dropTarget=0;whiteSpace=wrap;" parent="ot8jC1JeRxp6GfneqWq5-16" vertex="1">
          <mxGeometry x="70" y="35" width="180" height="90" as="geometry" />
        </mxCell>
        <mxCell id="GVH7bZ4-ch_q7qwEqbvq-94" value="" style="shape=module;jettyWidth=8;jettyHeight=4;" parent="GVH7bZ4-ch_q7qwEqbvq-93" vertex="1">
          <mxGeometry x="1" width="20" height="20" relative="1" as="geometry">
            <mxPoint x="-27" y="7" as="offset" />
          </mxGeometry>
        </mxCell>
        <mxCell id="ot8jC1JeRxp6GfneqWq5-54" value="&lt;font style=&quot;font-size: 14px;&quot;&gt;ISecurity&lt;/font&gt;" style="text;html=1;align=center;verticalAlign=middle;whiteSpace=wrap;rounded=0;" parent="1" vertex="1">
          <mxGeometry x="536.3100000000001" y="959.4536363636364" width="60" height="30.545454545454547" as="geometry" />
        </mxCell>
        <mxCell id="ot8jC1JeRxp6GfneqWq5-56" value="&lt;font style=&quot;font-size: 14px;&quot;&gt;TCP/IP&lt;/font&gt;" style="text;html=1;align=center;verticalAlign=middle;whiteSpace=wrap;rounded=0;" parent="1" vertex="1">
          <mxGeometry x="680" y="252" width="60" height="30" as="geometry" />
        </mxCell>
        <mxCell id="ot8jC1JeRxp6GfneqWq5-53" value="&lt;font style=&quot;font-size: 14px;&quot;&gt;IDataAccess&lt;/font&gt;" style="text;html=1;align=center;verticalAlign=middle;resizable=0;points=[];autosize=1;strokeColor=none;fillColor=none;" parent="1" vertex="1">
          <mxGeometry x="540.95" y="1160" width="100" height="30" as="geometry" />
        </mxCell>
        <mxCell id="ot8jC1JeRxp6GfneqWq5-61" value="&lt;font style=&quot;font-size: 14px;&quot;&gt;IClientAPI&lt;/font&gt;" style="text;html=1;align=center;verticalAlign=middle;whiteSpace=wrap;rounded=0;" parent="1" vertex="1">
          <mxGeometry x="680" y="-80" width="60" height="30" as="geometry" />
        </mxCell>
        <mxCell id="ot8jC1JeRxp6GfneqWq5-24" value="&lt;p style=&quot;margin:0px;margin-top:6px;text-align:center;&quot;&gt;&lt;b&gt;&lt;font style=&quot;font-size: 18px;&quot;&gt;ChatServer&lt;/font&gt;&lt;/b&gt;&lt;/p&gt;" style="align=left;overflow=fill;html=1;dropTarget=0;whiteSpace=wrap;" parent="1" vertex="1">
          <mxGeometry x="649.95" y="920" width="530" height="180" as="geometry" />
        </mxCell>
        <mxCell id="ot8jC1JeRxp6GfneqWq5-25" value="" style="shape=component;jettyWidth=8;jettyHeight=4;" parent="ot8jC1JeRxp6GfneqWq5-24" vertex="1">
          <mxGeometry x="1" width="20" height="20" relative="1" as="geometry">
            <mxPoint x="-24" y="4" as="offset" />
          </mxGeometry>
        </mxCell>
        <mxCell id="GVH7bZ4-ch_q7qwEqbvq-61" value="&lt;font style=&quot;font-size: 18px;&quot;&gt;«Component»&lt;br&gt;&lt;b style=&quot;&quot;&gt;AuthenticationService&lt;/b&gt;&lt;/font&gt;" style="html=1;dropTarget=0;whiteSpace=wrap;" parent="1" vertex="1">
          <mxGeometry x="224.95" y="744" width="240" height="140" as="geometry" />
        </mxCell>
        <mxCell id="GVH7bZ4-ch_q7qwEqbvq-62" value="" style="shape=module;jettyWidth=8;jettyHeight=4;" parent="GVH7bZ4-ch_q7qwEqbvq-61" vertex="1">
          <mxGeometry x="1" width="20" height="20" relative="1" as="geometry">
            <mxPoint x="-27" y="7" as="offset" />
          </mxGeometry>
        </mxCell>
        <mxCell id="GVH7bZ4-ch_q7qwEqbvq-68" value="&lt;font style=&quot;font-size: 18px;&quot;&gt;«Component»&lt;br&gt;&lt;b style=&quot;&quot;&gt;NotificationService&lt;/b&gt;&lt;/font&gt;" style="html=1;dropTarget=0;whiteSpace=wrap;" parent="1" vertex="1">
          <mxGeometry x="811.41" y="730" width="228.59" height="140" as="geometry" />
        </mxCell>
        <mxCell id="GVH7bZ4-ch_q7qwEqbvq-69" value="" style="shape=module;jettyWidth=8;jettyHeight=4;" parent="GVH7bZ4-ch_q7qwEqbvq-68" vertex="1">
          <mxGeometry x="1" width="20" height="20" relative="1" as="geometry">
            <mxPoint x="-27" y="7" as="offset" />
          </mxGeometry>
        </mxCell>
        <mxCell id="GVH7bZ4-ch_q7qwEqbvq-78" value="&lt;font style=&quot;font-size: 18px;&quot;&gt;«Component»&lt;br&gt;&lt;b&gt;MessageService&lt;/b&gt;&lt;/font&gt;" style="html=1;dropTarget=0;whiteSpace=wrap;" parent="1" vertex="1">
          <mxGeometry x="673.74" y="959.46" width="216.21" height="120.54" as="geometry" />
        </mxCell>
        <mxCell id="GVH7bZ4-ch_q7qwEqbvq-79" value="" style="shape=module;jettyWidth=8;jettyHeight=4;" parent="GVH7bZ4-ch_q7qwEqbvq-78" vertex="1">
          <mxGeometry x="1" width="20" height="20" relative="1" as="geometry">
            <mxPoint x="-27" y="7" as="offset" />
          </mxGeometry>
        </mxCell>
        <mxCell id="GVH7bZ4-ch_q7qwEqbvq-80" value="&lt;font style=&quot;font-size: 18px;&quot;&gt;«Component»&lt;br&gt;&lt;b&gt;SecurityModule&lt;/b&gt;&lt;/font&gt;" style="html=1;dropTarget=0;whiteSpace=wrap;" parent="1" vertex="1">
          <mxGeometry x="219.95" y="935" width="250" height="150" as="geometry" />
        </mxCell>
        <mxCell id="GVH7bZ4-ch_q7qwEqbvq-81" value="" style="shape=module;jettyWidth=8;jettyHeight=4;" parent="GVH7bZ4-ch_q7qwEqbvq-80" vertex="1">
          <mxGeometry x="1" width="20" height="20" relative="1" as="geometry">
            <mxPoint x="-27" y="7" as="offset" />
          </mxGeometry>
        </mxCell>
        <mxCell id="GVH7bZ4-ch_q7qwEqbvq-117" value="&lt;font style=&quot;font-size: 18px;&quot;&gt;«Component»&lt;br&gt;&lt;b&gt;FileService&lt;/b&gt;&lt;/font&gt;" style="html=1;dropTarget=0;whiteSpace=wrap;" parent="1" vertex="1">
          <mxGeometry x="949.95" y="959.4499999999999" width="210" height="123.33" as="geometry" />
        </mxCell>
        <mxCell id="GVH7bZ4-ch_q7qwEqbvq-118" value="" style="shape=module;jettyWidth=8;jettyHeight=4;" parent="GVH7bZ4-ch_q7qwEqbvq-117" vertex="1">
          <mxGeometry x="1" width="20" height="20" relative="1" as="geometry">
            <mxPoint x="-27" y="7" as="offset" />
          </mxGeometry>
        </mxCell>
        <mxCell id="ot8jC1JeRxp6GfneqWq5-32" value="" style="ellipse;whiteSpace=wrap;html=1;align=center;aspect=fixed;fillColor=none;strokeColor=none;resizable=0;perimeter=centerPerimeter;rotatable=0;allowArrows=0;points=[];outlineConnect=1;" parent="1" vertex="1">
          <mxGeometry x="909.9534881448075" y="873.9969696969697" width="10" height="10" as="geometry" />
        </mxCell>
        <mxCell id="ot8jC1JeRxp6GfneqWq5-43" value="" style="rounded=0;orthogonalLoop=1;jettySize=auto;html=1;endArrow=halfCircle;endFill=0;endSize=6;strokeWidth=1;sketch=0;exitX=0;exitY=0.5;exitDx=0;exitDy=0;" parent="1" source="ot8jC1JeRxp6GfneqWq5-24" target="ot8jC1JeRxp6GfneqWq5-45" edge="1">
          <mxGeometry relative="1" as="geometry">
            <mxPoint x="592.0261094200168" y="1015.1515151515152" as="sourcePoint" />
          </mxGeometry>
        </mxCell>
        <mxCell id="ot8jC1JeRxp6GfneqWq5-44" value="" style="rounded=0;orthogonalLoop=1;jettySize=auto;html=1;endArrow=oval;endFill=0;sketch=0;sourcePerimeterSpacing=0;targetPerimeterSpacing=0;endSize=10;exitX=1;exitY=0.5;exitDx=0;exitDy=0;" parent="1" source="GVH7bZ4-ch_q7qwEqbvq-80" target="ot8jC1JeRxp6GfneqWq5-45" edge="1">
          <mxGeometry relative="1" as="geometry">
            <mxPoint x="549.2680082869272" y="1015.1515151515152" as="sourcePoint" />
          </mxGeometry>
        </mxCell>
        <mxCell id="ot8jC1JeRxp6GfneqWq5-45" value="" style="ellipse;whiteSpace=wrap;html=1;align=center;aspect=fixed;fillColor=none;strokeColor=none;resizable=0;perimeter=centerPerimeter;rotatable=0;allowArrows=0;points=[];outlineConnect=1;" parent="1" vertex="1">
          <mxGeometry x="555.9522962118358" y="1005.0009090909091" width="10" height="10" as="geometry" />
        </mxCell>
        <mxCell id="IHNoXZ9JJPtJQ-aSNHEi-2" value="&lt;font style=&quot;font-size: 14px;&quot;&gt;IClientsession&lt;/font&gt;" style="text;html=1;align=center;verticalAlign=middle;whiteSpace=wrap;rounded=0;" vertex="1" parent="1">
          <mxGeometry x="710" y="570" width="60" height="30" as="geometry" />
        </mxCell>
        <mxCell id="IHNoXZ9JJPtJQ-aSNHEi-3" value="&lt;font style=&quot;font-size: 18px;&quot;&gt;«Multithreaded»&lt;br&gt;&lt;b&gt;ClientManager&lt;/b&gt;&lt;/font&gt;" style="html=1;dropTarget=0;whiteSpace=wrap;" vertex="1" parent="1">
          <mxGeometry x="530.05" y="399" width="250" height="140" as="geometry" />
        </mxCell>
        <mxCell id="IHNoXZ9JJPtJQ-aSNHEi-4" value="" style="shape=module;jettyWidth=8;jettyHeight=4;" vertex="1" parent="IHNoXZ9JJPtJQ-aSNHEi-3">
          <mxGeometry x="1" width="20" height="20" relative="1" as="geometry">
            <mxPoint x="-27" y="7" as="offset" />
          </mxGeometry>
        </mxCell>
        <mxCell id="IHNoXZ9JJPtJQ-aSNHEi-5" value="" style="rounded=0;orthogonalLoop=1;jettySize=auto;html=1;endArrow=halfCircle;endFill=0;endSize=6;strokeWidth=1;sketch=0;exitX=0.5;exitY=1;exitDx=0;exitDy=0;" edge="1" target="IHNoXZ9JJPtJQ-aSNHEi-7" parent="1" source="IHNoXZ9JJPtJQ-aSNHEi-3">
          <mxGeometry relative="1" as="geometry">
            <mxPoint x="679" y="585" as="sourcePoint" />
          </mxGeometry>
        </mxCell>
        <mxCell id="IHNoXZ9JJPtJQ-aSNHEi-6" value="" style="rounded=0;orthogonalLoop=1;jettySize=auto;html=1;endArrow=oval;endFill=0;sketch=0;sourcePerimeterSpacing=0;targetPerimeterSpacing=0;endSize=10;exitX=0.5;exitY=0;exitDx=0;exitDy=0;" edge="1" target="IHNoXZ9JJPtJQ-aSNHEi-7" parent="1" source="ot8jC1JeRxp6GfneqWq5-14">
          <mxGeometry relative="1" as="geometry">
            <mxPoint x="639" y="585" as="sourcePoint" />
          </mxGeometry>
        </mxCell>
        <mxCell id="IHNoXZ9JJPtJQ-aSNHEi-7" value="" style="ellipse;whiteSpace=wrap;html=1;align=center;aspect=fixed;fillColor=none;strokeColor=none;resizable=0;perimeter=centerPerimeter;rotatable=0;allowArrows=0;points=[];outlineConnect=1;" vertex="1" parent="1">
          <mxGeometry x="650" y="590" width="10" height="10" as="geometry" />
        </mxCell>
        <mxCell id="IHNoXZ9JJPtJQ-aSNHEi-12" value="" style="rounded=0;orthogonalLoop=1;jettySize=auto;html=1;endArrow=halfCircle;endFill=0;endSize=6;strokeWidth=1;sketch=0;exitX=0.5;exitY=1;exitDx=0;exitDy=0;" edge="1" target="IHNoXZ9JJPtJQ-aSNHEi-14" parent="1" source="ot8jC1JeRxp6GfneqWq5-3">
          <mxGeometry relative="1" as="geometry">
            <mxPoint x="670" y="296" as="sourcePoint" />
          </mxGeometry>
        </mxCell>
        <mxCell id="IHNoXZ9JJPtJQ-aSNHEi-13" value="" style="rounded=0;orthogonalLoop=1;jettySize=auto;html=1;endArrow=oval;endFill=0;sketch=0;sourcePerimeterSpacing=0;targetPerimeterSpacing=0;endSize=10;exitX=0.5;exitY=0;exitDx=0;exitDy=0;" edge="1" target="IHNoXZ9JJPtJQ-aSNHEi-14" parent="1" source="IHNoXZ9JJPtJQ-aSNHEi-3">
          <mxGeometry relative="1" as="geometry">
            <mxPoint x="630" y="296" as="sourcePoint" />
          </mxGeometry>
        </mxCell>
        <mxCell id="IHNoXZ9JJPtJQ-aSNHEi-14" value="" style="ellipse;whiteSpace=wrap;html=1;align=center;aspect=fixed;fillColor=none;strokeColor=none;resizable=0;perimeter=centerPerimeter;rotatable=0;allowArrows=0;points=[];outlineConnect=1;" vertex="1" parent="1">
          <mxGeometry x="650" y="262" width="10" height="10" as="geometry" />
        </mxCell>
      </root>
    </mxGraphModel>
  </diagram>
</mxfile>
